<?xml version="1.0" encoding="utf-8"?>
<!-- Generator: Adobe Illustrator 23.0.1, SVG Export Plug-In . SVG Version: 6.00 Build 0)  -->
<svg version="1.1" id="Layer_1" xmlns="http://www.w3.org/2000/svg" xmlns:xlink="http://www.w3.org/1999/xlink" x="0px" y="0px"
	 viewBox="0 0 300 300" style="enable-background:new 0 0 300 300;" xml:space="preserve">
<style type="text/css">
	.st0{fill:#3D3B3B;}
</style>
<g>
	<path class="st0" d="M153.4,251.4c-58.6,1.9-106.7-46.2-104.8-104.8c1.7-53.2,44.9-96.4,98.1-98.1c58.6-1.9,106.7,46.2,104.8,104.8
		C249.7,206.6,206.5,249.8,153.4,251.4z M154,64.6c-50.3-2.3-91.8,39.1-89.5,89.5c2,43.9,37.6,79.4,81.4,81.4
		c50.3,2.3,91.8-39.1,89.5-89.5C233.4,102.2,197.9,66.7,154,64.6z"/>
	<g>
		<path class="st0" d="M141.4,203.1h-31c-1.9,0-3.5-1.6-3.5-3.5v-97c0-1.9,1.6-3.5,3.5-3.5h31c1.9,0,3.5,1.6,3.5,3.5v97
			C145,201.6,143.3,203.1,141.4,203.1z"/>
		<path class="st0" d="M189.4,203.1h-31c-1.9,0-3.5-1.6-3.5-3.5v-97c0-1.9,1.6-3.5,3.5-3.5h31c1.9,0,3.5,1.6,3.5,3.5v97
			C193.1,201.6,191.4,203.1,189.4,203.1z"/>
	</g>
</g>
</svg>
