<?xml version="1.0" encoding="utf-8"?>
<!-- Generator: Adobe Illustrator 23.0.1, SVG Export Plug-In . SVG Version: 6.00 Build 0)  -->
<svg version="1.1" id="Layer_1" xmlns="http://www.w3.org/2000/svg" xmlns:xlink="http://www.w3.org/1999/xlink" x="0px" y="0px"
	 viewBox="0 0 300 300" style="enable-background:new 0 0 300 300;" xml:space="preserve">
<style type="text/css">
	.st0{fill:#3C3C3B;}
</style>
<g>
	<path class="st0" d="M150,251.5C94,251.5,48.5,206,48.5,150S94,48.5,150,48.5S251.5,94,251.5,150S206,251.5,150,251.5z M150,64.4
		c-47.2,0-85.6,38.4-85.6,85.6s38.4,85.6,85.6,85.6s85.6-38.4,85.6-85.6S197.2,64.4,150,64.4z"/>
	<path class="st0" d="M115,149.5V96.3c0-2.6,2.4-4.2,4.4-3.1l47.8,26.9l46.8,26.3c2.3,1.3,2.3,4.9,0,6.2l-46.8,26.3l-47.8,26.9
		c-2,1.1-4.4-0.5-4.4-3.1C115,202.7,115,149.5,115,149.5z"/>
</g>
</svg>
